<svg width="800" height="800" viewBox="0 0 800 800" fill="none" xmlns="http://www.w3.org/2000/svg">
<rect width="800" height="800" fill="url(#paint0_linear_105_10)"/>
<path d="M126.7 348.9C140.5 348.9 150.55 351.9 156.85 357.9C163.25 363.8 166.45 371.95 166.45 382.35C166.45 387.05 165.75 391.55 164.35 395.85C162.95 400.05 160.6 403.85 157.3 407.25C154.1 410.55 149.85 413.15 144.55 415.05C139.25 416.95 132.7 417.9 124.9 417.9H115.15V456H92.5V348.9H126.7ZM125.5 367.5H115.15V399.3H122.65C126.95 399.3 130.65 398.75 133.75 397.65C136.85 396.55 139.25 394.8 140.95 392.4C142.65 390 143.5 386.9 143.5 383.1C143.5 377.8 142.05 373.9 139.15 371.4C136.25 368.8 131.7 367.5 125.5 367.5ZM274.439 456H251.789V409.8H209.339V456H186.689V348.9H209.339V390.9H251.789V348.9H274.439V456ZM398.587 402.3C398.587 410.6 397.537 418.15 395.437 424.95C393.437 431.65 390.337 437.45 386.137 442.35C382.037 447.25 376.737 451 370.237 453.6C363.837 456.2 356.287 457.5 347.587 457.5C338.887 457.5 331.287 456.2 324.787 453.6C318.387 450.9 313.087 447.15 308.887 442.35C304.787 437.45 301.687 431.6 299.587 424.8C297.587 418 296.587 410.45 296.587 402.15C296.587 391.05 298.387 381.4 301.987 373.2C305.687 365 311.287 358.65 318.787 354.15C326.387 349.55 336.037 347.25 347.737 347.25C359.337 347.25 368.887 349.55 376.387 354.15C383.887 358.65 389.437 365.05 393.037 373.35C396.737 381.55 398.587 391.2 398.587 402.3ZM320.437 402.3C320.437 409.8 321.387 416.25 323.287 421.65C325.187 427.05 328.137 431.2 332.137 434.1C336.137 437 341.287 438.45 347.587 438.45C354.087 438.45 359.287 437 363.187 434.1C367.187 431.2 370.087 427.05 371.887 421.65C373.787 416.25 374.737 409.8 374.737 402.3C374.737 391 372.637 382.15 368.437 375.75C364.237 369.35 357.337 366.15 347.737 366.15C341.337 366.15 336.137 367.6 332.137 370.5C328.137 373.4 325.187 377.55 323.287 382.95C321.387 388.35 320.437 394.8 320.437 402.3ZM508.071 456H482.271L443.421 401.7V456H420.771V348.9H443.421V400.8L481.821 348.9H505.971L466.971 400.35L508.071 456ZM521.553 456V348.9H606.303V456H583.653V367.8H544.203V456H521.553ZM633.32 456V348.9H718.07V456H695.42V367.8H655.97V456H633.32Z" fill="black"/>
<defs>
<linearGradient id="paint0_linear_105_10" x1="-389" y1="1306" x2="990.5" y2="-175" gradientUnits="userSpaceOnUse">
<stop stop-color="#2D8CF5"/>
<stop offset="0.233538" stop-color="#FFD700"/>
<stop offset="0.505015" stop-color="#398FEF"/>
<stop offset="0.795672" stop-color="#FFD700"/>
<stop offset="1" stop-color="#8EB4DE"/>
</linearGradient>
</defs>
</svg>
